<?xml version="1.0" encoding="UTF-8" standalone="no"?>
<svg
   height="863"
   viewBox="0 0 1058 863"
   width="1058"
   version="1.1"
   id="svg181"
   sodipodi:docname="logo-light_redbg.svg"
   inkscape:version="1.2.2 (b0a8486541, 2022-12-01)"
   xmlns:inkscape="http://www.inkscape.org/namespaces/inkscape"
   xmlns:sodipodi="http://sodipodi.sourceforge.net/DTD/sodipodi-0.dtd"
   xmlns="http://www.w3.org/2000/svg"
   xmlns:svg="http://www.w3.org/2000/svg">
  <defs
     id="defs185" />
  <sodipodi:namedview
     id="namedview183"
     pagecolor="#ffffff"
     bordercolor="#000000"
     borderopacity="0.25"
     inkscape:showpageshadow="2"
     inkscape:pageopacity="0.0"
     inkscape:pagecheckerboard="0"
     inkscape:deskcolor="#d1d1d1"
     showgrid="false"
     inkscape:zoom="0.32159839"
     inkscape:cx="133.70714"
     inkscape:cy="346.70571"
     inkscape:window-width="1920"
     inkscape:window-height="945"
     inkscape:window-x="0"
     inkscape:window-y="0"
     inkscape:window-maximized="1"
     inkscape:current-layer="svg181" />
  <rect
     style="fill:#ff0000;stroke:#221010;stroke-width:2.15336"
     id="rect460"
     width="1058"
     height="863"
     x="-2.8421709e-14"
     y="5.6843419e-14" />
  <g
     transform="rotate(45,686.43776,451.47764)"
     fill="#fff"
     id="g167">
    <path
       d="m839.40352 174.189138-3.542187-6.545313-6.54375-3.542187c-78.076563-42.254688-175.084375-53.926563-273.154688-32.865625-99.7625 21.426562-193.417187 73.673437-270.835937 151.09375-77.41875 77.420312-129.667188 171.073437-151.09375 270.835937-21.05625 98.067188-9.385938 195.075 32.867187 273.154688l3.542188 6.545312 6.545312 3.542188c52.690625 28.515625 113.985938 43.101562 178.428125 43.101562 31.846636-.062575 63.597292-3.494172 94.721875-10.2375 99.7625-21.425 193.415625-73.673437 270.834375-151.09375 77.41875-77.420312 129.678125-171.076562 151.096875-270.839062 21.0625-98.06875 9.390625-195.08125-32.865625-273.15zm-40.5 30.4125c30.90625 60.715625 40.375 130.948437 30.3125 202.382812l-232.695312-232.695312c71.435937-10.0625 141.673437-.59375 202.382812 30.3125zm-591.3 591.301562c-31.565625-62.010937-40.76875-133.948437-29.639062-206.957812l236.595312 236.59375c-73.007812 11.132812-144.946875 1.928125-206.95625-29.635938zm478.217188-113.084375c-63.178125 63.178125-137.675 107.170313-213.532813 129.740625l-281.342187-281.340625c22.571875-75.859375 66.5625-150.35625 129.740625-213.534375 64.30625-64.30625 140.340625-108.723437 217.6-130.917187l278.453125 278.459375c-22.19375 77.253125-66.610938 153.28125-130.91875 217.592187z"
       id="path151" />
    <path
       d="m696.934904 2.70156564 40.893617 124.00000036h-81.787234z"
       transform="matrix(.99756405 .06975647 -.06975647 .99756405 6.211051 -48.458112)"
       id="path153" />
    <path
       d="m937.893617 244 40.893617 124h-81.787234z"
       transform="matrix(.12186934 .99254615 -.99254615 .12186934 1127.31226 -662.194719)"
       id="path155" />
    <path
       d="m306.893617 875 40.893617 124h-81.787234z"
       transform="matrix(-.99254615 -.12186934 .12186934 -.99254615 497.308121 1904.416668)"
       id="path157" />
    <path
       d="m65.9349045 633.701566 40.8936165 124h-81.7872336z"
       transform="matrix(-.10452846 -.9945219 .9945219 -.10452846 -619.063462 833.995887)"
       id="path159" />
    <g
       transform="matrix(.70710678 -.70710678 .70710678 .70710678 268.352415 531.204579)"
       id="g165">
      <path
         d="m0-0h77.109375c24.356771 0 42.807943 1.89713542 55.353516 5.69140625s22.673828 11.47460935 30.384765 23.04101565c7.710938 11.5664062 11.566407 30.2011718 11.566407 55.9042968 0 17.3802083-2.723308 29.4973963-8.169922 36.3515623-5.446615 6.854167-16.186849 12.117188-32.220703 15.789063 17.869791 4.039062 29.986979 10.740234 36.351562 20.103515 6.364583 9.363282 9.546875 23.714193 9.546875 43.052735v27.539062c0 20.072917-2.294922 34.944011-6.884766 44.613281-4.589843 9.669271-11.902994 16.278646-21.939453 19.828125-10.036458 3.54948-30.598958 5.324219-61.6874997 5.324219h-89.4101563zm77.2929688 50.8554687v66.0937503c3.3046875-.122396 5.875-.183594 7.7109375-.183594 7.5885416 0 12.423177-1.866536 14.5039062-5.599609 2.0807295-3.733073 3.1210935-14.4121098 3.1210935-32.0371098 0-9.3020833-.856771-15.8196614-2.570312-19.5527343-1.7135419-3.7330729-3.9472659-6.0891927-6.7011721-7.0683594-2.7539063-.9791667-8.108724-1.5299479-16.0644531-1.6523438zm0 112.3593753v83.167968c10.8932291-.367187 17.8391927-2.080729 20.8378906-5.140625 2.9986976-3.059895 4.4980466-10.587239 4.4980466-22.582031v-27.722656c0-12.729167-1.346354-20.440104-4.0390622-23.132813-2.6927084-2.692708-9.7916667-4.222656-21.296875-4.589843z"
         id="path161" />
      <path
         d="m207.644531-0h77.109375c24.356771 0 42.807943 1.89713542 55.353516 5.69140625s22.673828 11.47460935 30.384766 23.04101565c7.710937 11.5664062 11.566406 30.2011718 11.566406 55.9042968 0 17.3802083-2.723308 29.4973963-8.169922 36.3515623-5.446615 6.854167-16.186849 12.117188-32.220703 15.789063 17.869791 4.039062 29.986979 10.740234 36.351562 20.103515 6.364584 9.363282 9.546875 23.714193 9.546875 43.052735v27.539062c0 20.072917-2.294922 34.944011-6.884765 44.613281-4.589844 9.669271-11.902995 16.278646-21.939453 19.828125-10.036459 3.54948-30.598959 5.324219-61.6875 5.324219h-89.410157zm77.292969 50.8554687v66.0937503c3.304688-.122396 5.875-.183594 7.710938-.183594 7.588541 0 12.423177-1.866536 14.503906-5.599609s3.121094-14.4121098 3.121094-32.0371098c0-9.3020833-.856771-15.8196614-2.570313-19.5527343s-3.947266-6.0891927-6.701172-7.0683594-8.108724-1.5299479-16.064453-1.6523438zm0 112.3593753v83.167968c10.893229-.367187 17.839193-2.080729 20.837891-5.140625 2.998698-3.059895 4.498047-10.587239 4.498047-22.582031v-27.722656c0-12.729167-1.346355-20.440104-4.039063-23.132813-2.692708-2.692708-9.791667-4.222656-21.296875-4.589843z"
         id="path163" />
    </g>
  </g>
  <g
     transform="translate(305.003418 689.788086)"
     fill="#fff"
     id="g179">
    <path
       d="m138.457031 2.82226562-15.522461 134.38964838h-43.6621091c-3.984375-20.641276-7.4983724-44.1048176-10.5419921-70.3906249-1.3834636 11.2337239-4.6207683 34.6972659-9.7119141 70.3906249h-43.413086l-15.6054687-134.38964838h33.9501953l3.5693359 46.89941408 3.6523438 45.2392578c1.2727865-23.4082031 4.4824219-54.1210937 9.6289062-92.13867188h36.3574219c.4980469 3.92903646 1.7708334 18.70442708 3.8183594 44.32617188l3.8183594 51.0498047c1.9368489-32.483724 5.1741536-64.2757162 9.7119141-95.37597658z"
       id="path169" />
    <path
       d="m205.776367 2.82226562 20.004883 134.38964838h-35.776367l-1.743164-24.155273h-12.53418l-2.075195 24.155273h-36.191406l17.763671-134.38964838zm-18.510742 86.41113278c-1.770833-15.2180989-3.541667-34.0055338-5.3125-56.3623046-3.541667 25.6770833-5.755208 44.4645182-6.640625 56.3623046z"
       id="path171" />
    <path
       d="m266.704102 2.82226562v107.49511738h21.25v26.894531h-56.19629v-134.38964838z"
       id="path173" />
    <path
       d="m296.420898 2.82226562h58.271485v26.89453128h-23.325195v25.4833984h21.831054v25.5664063h-21.831054v29.5507814h25.649414v26.894531h-60.595704z"
       id="path175" />
    <path
       d="m441.103516 43.4960938h-32.456055v-9.9609376c0-4.6484374-.415039-7.6090494-1.245117-8.8818359-.830078-1.2727864-2.213542-1.9091797-4.150391-1.9091797-2.102864 0-3.693848.8577474-4.772949 2.5732422-1.079102 1.7154948-1.618652 4.3164063-1.618652 7.8027344 0 4.4824219.608724 7.8580729 1.826171 10.1269531 1.16211 2.2688802 4.454753 5.008138 9.87793 8.2177735 15.55013 9.2415364 25.345052 16.8229166 29.384766 22.7441406 4.039713 5.9212239 6.05957 15.4671224 6.05957 28.6376956 0 9.573567-1.120605 16.629231-3.361816 21.166992-2.241211 4.53776-6.571452 8.342285-12.990723 11.413574s-13.889974 4.606934-22.412109 4.606934c-9.352214 0-17.334799-1.770834-23.947754-5.3125-6.612956-3.541667-10.943197-8.051758-12.990723-13.530274-2.047526-5.478515-3.071289-13.25358-3.071289-23.3251951v-8.7988281h32.456055v16.3525392c0 5.035807.456543 8.273112 1.369629 9.711914s2.531738 2.158203 4.855957 2.158203c2.324218 0 4.053548-.913086 5.187988-2.739258s1.70166-4.53776 1.70166-8.134765c0-7.9134118-1.079102-13.0875655-3.237305-15.5224613-2.213541-2.4348958-7.664388-6.5022787-16.352539-12.2021485-8.688151-5.7552083-14.443359-9.9332682-17.265625-12.5341796-2.822265-2.6009115-5.160319-6.1979167-7.01416-10.7910157-1.853841-4.5930989-2.780762-10.4589843-2.780762-17.5976562 0-10.2929688 1.314291-17.8190104 3.942872-22.578125 2.62858-4.7591146 6.875813-8.48063152 12.741699-11.16455079 5.865885-2.68391927 12.949218-4.02587891 21.25-4.02587891 9.075521 0 16.809082 1.46647135 23.200683 4.39941406 6.391602 2.93294271 10.625 6.62679034 12.700196 11.08154294 2.075195 4.4547526 3.112793 12.0222982 3.112793 22.7026368z"
       id="path177" />
  </g>
</svg>
