<svg xmlns="http://www.w3.org/2000/svg" width="1004px" height="1005px" viewBox="0 0 1004 1005" preserveAspectRatio="xMinYMid" aria-hidden="true" fill="#000"><path d="M837.676707,175.978534 L834.134519,169.433222 L827.590769,165.891034 C749.514207,123.636347 652.506394,111.964472 554.436082,133.025409 C454.673582,154.451972 361.018894,206.698847 283.600144,284.119159 C206.181394,361.539472 153.932957,455.192597 132.506394,554.955097 C111.450144,653.022284 123.120457,750.030097 165.373582,828.109784 L168.915769,834.655097 L175.461082,838.197284 C228.151707,866.712909 289.447019,881.298847 353.889207,881.298847 C385.735843,881.236271 417.486499,877.804674 448.611082,871.061347 C548.373582,849.636347 642.026707,797.387909 719.445457,719.967597 C796.864207,642.547284 849.123582,548.891034 870.542332,449.128534 C891.604832,351.059784 879.932957,254.047284 837.676707,175.978534 Z M797.176707,206.391034 C828.082957,267.106659 837.551707,337.339472 827.489207,408.773847 L594.793894,176.078534 C666.229832,166.016034 736.467332,175.484784 797.176707,206.391034 Z M205.876707,797.692597 C174.311082,735.681659 165.107957,663.744159 176.237644,590.734784 L412.832957,827.328534 C339.825144,838.461347 267.886082,829.256659 205.876707,797.692597 Z M684.093894,684.608222 L684.093894,684.608222 C620.915769,747.786347 546.418894,791.778534 470.561082,814.348847 L189.218894,533.008222 C211.790769,457.148847 255.781394,382.651972 318.959519,319.473847 C383.265769,255.167597 459.300144,210.750409 536.559519,188.556659 L815.012644,467.016034 C792.818894,544.269159 748.401707,620.297284 684.093894,684.608222 Z"/><polygon id="Triangle" transform="translate(676.271410, 64.701566) rotate(4.000000) translate(-676.271410, -64.701566) " points="676.27141 2.70156564 717.165027 126.701566 635.377793 126.701566"/><polygon id="Triangle" transform="translate(239.549365, 253.301236) rotate(-45.000000) translate(-239.549365, -253.301236) " points="239.549365 191.301236 280.442982 315.301236 198.655748 315.301236"/><polygon id="Triangle" transform="translate(759.067797, 753.725003) rotate(-225.000000) translate(-759.067797, -753.725003) " points="759.067797 691.725003 799.961414 815.725003 718.17418 815.725003"/><polygon id="Triangle" transform="translate(936.458544, 300.961179) rotate(83.000000) translate(-936.458544, -300.961179) " points="936.458544 238.961179 977.352161 362.961179 895.564927 362.961179"/><polygon id="Triangle" transform="translate(302.790680, 936.966115) rotate(-173.000000) translate(-302.790680, -936.966115) " points="302.79068 874.966115 343.684297 998.966115 261.897063 998.966115"/><polygon id="Triangle" transform="translate(65.934904, 707.033928) rotate(-96.000000) translate(-65.934904, -707.033928) " points="65.9349045 645.033928 106.828521 769.033928 25.0412874 769.033928"/><g transform="translate(502.541969, 501.612284) rotate(-45.000000) translate(-502.541969, -501.612284) translate(360.296852, 273.519511)"><path d="M5.68434189e-14,0 L56.6015625,0 C74.4804688,0 88.0244141,1.39257812 97.2333984,4.17773438 C106.442383,6.96289062 113.876953,12.6005859 119.537109,21.0908203 C125.197266,29.5810547 128.027344,43.2597656 128.027344,62.1269531 C128.027344,74.8847656 126.02832,83.7792969 122.030273,88.8105469 C118.032227,93.8417969 110.148438,97.7050781 98.3789063,100.400391 C111.496094,103.365234 120.390625,108.28418 125.0625,115.157227 C129.734375,122.030273 132.070313,132.564453 132.070313,146.759766 L132.070313,166.974609 C132.070313,181.708984 130.385742,192.625 127.016602,199.722656 C123.647461,206.820312 118.279297,211.671875 110.912109,214.277344 C103.544922,216.882812 88.4511719,218.185547 65.6308594,218.185547 L5.68434189e-14,218.185547 L5.68434189e-14,0 Z M56.7363281,37.3300781 L56.7363281,85.8457031 C59.1621094,85.7558594 61.0488281,85.7109375 62.3964844,85.7109375 C67.9667969,85.7109375 71.515625,84.3408203 73.0429688,81.6005859 C74.5703125,78.8603516 75.3339844,71.0214844 75.3339844,58.0839844 C75.3339844,51.2558594 74.7050781,46.4716797 73.4472656,43.7314453 C72.1894531,40.9912109 70.5498047,39.2617188 68.5283203,38.5429688 C66.5068359,37.8242188 62.5761719,37.4199219 56.7363281,37.3300781 Z M56.7363281,119.806641 L56.7363281,180.855469 C64.7324219,180.585938 69.8310547,179.328125 72.0322266,177.082031 C74.2333984,174.835938 75.3339844,169.310547 75.3339844,160.505859 L75.3339844,140.15625 C75.3339844,130.8125 74.3457031,125.152344 72.3691406,123.175781 C70.3925781,121.199219 65.1816406,120.076172 56.7363281,119.806641 Z"/><path d="M152.419922,0 L209.021484,0 C226.900391,0 240.444336,1.39257812 249.65332,4.17773438 C258.862305,6.96289062 266.296875,12.6005859 271.957031,21.0908203 C277.617188,29.5810547 280.447266,43.2597656 280.447266,62.1269531 C280.447266,74.8847656 278.448242,83.7792969 274.450195,88.8105469 C270.452148,93.8417969 262.568359,97.7050781 250.798828,100.400391 C263.916016,103.365234 272.810547,108.28418 277.482422,115.157227 C282.154297,122.030273 284.490234,132.564453 284.490234,146.759766 L284.490234,166.974609 C284.490234,181.708984 282.805664,192.625 279.436523,199.722656 C276.067383,206.820312 270.699219,211.671875 263.332031,214.277344 C255.964844,216.882812 240.871094,218.185547 218.050781,218.185547 L152.419922,218.185547 L152.419922,0 Z M209.15625,37.3300781 L209.15625,85.8457031 C211.582031,85.7558594 213.46875,85.7109375 214.816406,85.7109375 C220.386719,85.7109375 223.935547,84.3408203 225.462891,81.6005859 C226.990234,78.8603516 227.753906,71.0214844 227.753906,58.0839844 C227.753906,51.2558594 227.125,46.4716797 225.867188,43.7314453 C224.609375,40.9912109 222.969727,39.2617188 220.948242,38.5429688 C218.926758,37.8242188 214.996094,37.4199219 209.15625,37.3300781 Z M209.15625,119.806641 L209.15625,180.855469 C217.152344,180.585938 222.250977,179.328125 224.452148,177.082031 C226.65332,174.835938 227.753906,169.310547 227.753906,160.505859 L227.753906,140.15625 C227.753906,130.8125 226.765625,125.152344 224.789063,123.175781 C222.8125,121.199219 217.601563,120.076172 209.15625,119.806641 Z"/><path d="M253.494141,238 L228.292969,456.185547 L157.40625,456.185547 C150.9375,422.673828 145.232422,384.580078 140.291016,341.904297 C138.044922,360.142578 132.789063,398.236328 124.523438,456.185547 L54.0410156,456.185547 L28.7050781,238 L83.8242188,238 L89.6191406,314.142578 L95.5488281,387.589844 C97.6152344,349.585938 102.826172,299.722656 111.181641,238 L170.208984,238 C171.017578,244.378906 173.083984,268.367188 176.408203,309.964844 L182.607422,392.845703 C185.751953,340.107422 191.007813,288.492188 198.375,238 L253.494141,238 Z" id="Path"/></g></svg>